<?xml version="1.0" encoding="UTF-8" standalone="no"?>
<!-- Created with Inkscape (http://www.inkscape.org/) -->

<svg
   width="35.543568mm"
   height="35.421513mm"
   viewBox="0 0 35.543568 35.421513"
   version="1.1"
   id="svg1"
   inkscape:version="1.3.2 (091e20e, 2023-11-25, custom)"
   sodipodi:docname="pagina.svg"
   xml:space="preserve"
   xmlns:inkscape="http://www.inkscape.org/namespaces/inkscape"
   xmlns:sodipodi="http://sodipodi.sourceforge.net/DTD/sodipodi-0.dtd"
   xmlns="http://www.w3.org/2000/svg"
   xmlns:svg="http://www.w3.org/2000/svg"><sodipodi:namedview
     id="namedview1"
     pagecolor="#ffffff"
     bordercolor="#000000"
     borderopacity="0.25"
     inkscape:showpageshadow="2"
     inkscape:pageopacity="0.0"
     inkscape:pagecheckerboard="0"
     inkscape:deskcolor="#d1d1d1"
     inkscape:document-units="mm"
     inkscape:zoom="0.70710678"
     inkscape:cx="-789.83827"
     inkscape:cy="273.65032"
     inkscape:window-width="1920"
     inkscape:window-height="991"
     inkscape:window-x="-9"
     inkscape:window-y="-9"
     inkscape:window-maximized="1"
     inkscape:current-layer="layer1"
     showguides="true"><sodipodi:guide
       position="264.15269,-19.857015"
       orientation="1,0"
       id="guide4"
       inkscape:locked="false" /></sodipodi:namedview><defs
     id="defs1" /><g
     inkscape:label="Layer 1"
     inkscape:groupmode="layer"
     id="layer1"
     transform="translate(249.92823,236.06641)"><path
       id="rect568"
       style="font-variation-settings:'wght' 900;opacity:0;fill:#ffffff;stroke-width:1.19803;stroke-linecap:square;stroke-linejoin:round;paint-order:markers stroke fill"
       d="m -249.92824,-231.25331 h 1.87682 v 0.0864 0.0864 h -1.87682 z"
       sodipodi:nodetypes="cccccc"
       inkscape:export-filename="pag\assets\new background.svg"
       inkscape:export-xdpi="96"
       inkscape:export-ydpi="96" /><g
       id="g568"
       inkscape:export-filename="pag\assets\new background.svg"
       inkscape:export-xdpi="96"
       inkscape:export-ydpi="96"
       transform="translate(-10.31875,-0.8009298)"><g
         id="g485"
         transform="translate(0,-7.4821984)"><path
           style="opacity:0.108143;fill:#000000;stroke-width:0.264583"
           d="m -234.79212,-198.69306 a 0.55918088,0.55918088 0 0 0 -0.14471,-0.019 l -2.23702,-1.5e-4 a 0.55918088,0.55918088 0 0 0 -0.55912,0.55911 l 4e-4,3.3554 a 0.55918088,0.55918088 0 0 0 0.55911,0.55912 h 2.23647 a 0.55918088,0.55918088 0 0 0 0.55912,-0.55912 l 1.5e-4,-3.35525 a 0.55918088,0.55918088 0 0 0 -0.41439,-0.54013 z m -1.18373,0.54598 a 0.55918526,0.55918526 0 0 1 0.47986,0.55315 0.55918526,0.55918526 0 1 1 -1.11824,0 0.55918526,0.55918526 0 0 1 0.63838,-0.55315 z m -0.007,0.28309 a 0.27959256,0.27959256 0 0 0 -0.35226,0.27024 0.27959256,0.27959256 0 0 0 0.55912,1e-5 0.27959256,0.27959256 0 0 0 -0.20686,-0.27025 z m 0.14522,1.13328 a 0.97856655,0.97856655 0 0 1 -0.21769,1.93279 0.97863062,0.97863062 0 0 1 -1.9e-4,-1.95726 0.97856655,0.97856655 0 0 1 0.21789,0.0244 z m -0.12461,0.54514 a 0.41938898,0.41938898 0 0 0 -0.51275,0.40929 0.41951001,0.41951001 0 0 0 0.83902,-1.9e-4 0.41938898,0.41938898 0 0 0 -0.32627,-0.4091 z"
           id="path107" /><path
           style="opacity:0.108143;fill:#000000;stroke-width:0.264583"
           d="m -227.99778,-197.48037 a 1.6775427,1.6775427 0 0 1 0.0768,0.10598 1.3979522,1.3979522 0 0 0 -0.0768,-0.10598 z m 0.0768,0.10598 a 1.3979522,1.3979522 0 0 1 0.37245,0.89918 l -1.8e-4,0.27923 -0.27935,3.1e-4 a 0.27959044,0.27959044 0 0 0 -0.27957,0.27956 l -1.9e-4,0.83834 a 0.27959044,0.27959044 0 0 0 0.27956,0.27957 l 0.27976,3.1e-4 a 0.27959044,0.27959044 0 0 0 0.27956,-0.27957 l -1.9e-4,-1.39813 a 1.6775427,1.6775427 0 0 0 -0.65182,-0.89885 z"
           id="path104" /><path
           style="opacity:0.108143;fill:#000000;stroke-width:0.264583"
           d="m -228.42744,-198.07321 a 1.6775427,1.6775427 0 0 0 -2.19646,1.59762 l -3.4e-4,1.39799 a 0.27959044,0.27959044 0 0 0 0.27956,0.27956 l 0.27976,3.2e-4 a 0.27959044,0.27959044 0 0 0 0.27971,-0.28009 l -3.4e-4,-0.83848 a 0.27959044,0.27959044 0 0 0 -0.27956,-0.27956 l -0.27924,-1.8e-4 -3.1e-4,-0.27937 a 1.3979522,1.3979522 0 0 1 1.39796,-1.39832 1.3979522,1.3979522 0 0 1 0.94895,0.39335 1.6775427,1.6775427 0 0 0 -0.42966,-0.59284 z"
           id="path103" /><path
           style="opacity:0.108143;fill:#000000;stroke-width:0.264583"
           d="m -219.83142,-198.41328 a 0.27959044,0.27959044 0 0 0 -0.0771,-0.003 l -2.23707,0.22371 a 0.27959044,0.27959044 0 0 0 -0.25145,0.27804 l 1.1e-4,0.0266 -3.1e-4,2.34946 c -0.11691,-0.0705 -0.26171,-0.11288 -0.4192,-0.11288 -0.38585,3e-5 -0.69943,0.25044 -0.6994,0.5594 4e-5,0.30896 0.31342,0.55936 0.69926,0.55936 0.38583,-4e-5 0.69891,-0.2506 0.69887,-0.55955 l -1.2e-4,-2.54405 2.23707,-0.22372 -1.1e-4,1.76214 c -0.11694,-0.0704 -0.26182,-0.1124 -0.41934,-0.11237 -0.38584,4e-5 -0.69929,0.24993 -0.69927,0.55888 4e-5,0.30896 0.31342,0.55935 0.69927,0.55936 0.38584,-4e-5 0.69876,-0.25007 0.69873,-0.55903 l 3.4e-4,-2.51623 -0.004,-6e-5 a 0.27959044,0.27959044 0 0 0 -0.22582,-0.24594 z"
           id="path93" /><path
           style="opacity:0.108143;fill:#000000;stroke-width:0.264583"
           d="m -213.75057,-198.7129 -1.53775,8e-5 a 0.55918088,0.55918088 0 0 0 -0.55912,0.55912 l -1.5e-4,3.35525 a 0.55918088,0.55918088 0 0 0 0.55912,0.55912 l 2.23701,1.5e-4 a 0.55918088,0.55918088 0 0 0 0.55912,-0.55912 l -9e-5,-2.65599 z m 1.9e-4,0.27989 v 0.55912 a 0.41938566,0.41938566 0 0 0 0.41907,0.41927 l 0.55912,1e-5 1.1e-4,2.65598 a 0.27959044,0.27959044 0 0 1 -0.27957,0.27956 l -2.23662,5.2e-4 a 0.27959044,0.27959044 0 0 1 -0.27956,-0.27956 l 1.4e-4,-3.35524 a 0.27959044,0.27959044 0 0 1 0.27957,-0.27956 z m 0.21484,1.30781 a 0.27959044,0.27959044 0 0 0 -0.14315,-0.002 l -0.27987,0.0697 a 0.27959044,0.27959044 0 0 0 -0.21173,0.27117 l 2.8e-4,1.20368 a 0.72693514,0.72693514 0 0 0 -0.27992,-0.0546 c -0.13978,2e-5 -0.27194,0.0377 -0.37373,0.10564 -0.1007,0.0671 -0.18527,0.17548 -0.18534,0.31386 -2e-5,0.13839 0.0841,0.24649 0.18508,0.31359 0.10176,0.068 0.23478,0.10536 0.37427,0.10546 0.13951,1e-5 0.27233,-0.037 0.3741,-0.10497 0.10071,-0.0671 0.18475,-0.17561 0.18477,-0.314 l 3e-4,-1.00962 0.55922,-0.13961 -1.2e-4,-0.48905 a 0.27959044,0.27959044 0 0 0 -0.20424,-0.26955 z"
           id="path85" /><path
           style="opacity:0.108143;fill:#000000;stroke-width:0.264583"
           d="m -207.87554,-195.52059 a 1.3979522,1.3979522 0 0 1 -0.0575,-0.0641 1.1183618,1.1183618 0 0 0 0.0575,0.0641 z m -0.0575,-0.0641 a 1.1183618,1.1183618 0 0 1 -0.52612,-0.89118 l -1.7e-4,-0.27989 a 0.13979522,0.13979522 0 0 0 -0.13951,-0.13967 0.13979522,0.13979522 0 0 0 -0.13981,0.14006 l -3.2e-4,0.27976 a 1.3979522,1.3979522 0 0 0 0.80601,0.89098 z"
           id="path83" /><path
           style="opacity:0.108143;fill:#000000;stroke-width:0.264583"
           d="m -206.05126,-196.89175 a 0.13979642,0.13979642 0 0 0 -0.17105,0.13621 l -3.2e-4,0.27976 a 1.1183618,1.1183618 0 0 1 -1.65289,0.95519 1.3979522,1.3979522 0 0 0 0.39482,0.43595 l -1.2e-4,0.56587 -0.83848,3.4e-4 a 0.13979813,0.13979813 0 0 0 -1.8e-4,0.27923 l 1.9571,3.3e-4 a 0.13988022,0.13988022 0 0 0 3.2e-4,-0.27976 l -0.83902,2e-4 2.7e-4,-0.5664 a 1.3979522,1.3979522 0 0 0 1.25807,-1.39114 l -3.1e-4,-0.27936 a 0.13979642,0.13979642 0 0 0 -0.10818,-0.13641 z"
           id="path82" /><path
           style="opacity:0.108143;fill:#000000;stroke-width:0.264583"
           d="m -207.195,-198.6997 a 0.83877132,0.83877132 0 0 0 -0.14591,-0.0125 0.83877132,0.83877132 0 0 0 -0.83867,0.83868 l -2e-4,1.39747 a 0.838945,0.838945 0 0 0 1.67789,1.3e-4 l -3.3e-4,-1.3976 a 0.83877132,0.83877132 0 0 0 -0.69278,-0.82616 z m -0.0215,0.28082 a 0.55918512,0.55918512 0 0 1 0.43512,0.54512 l -3.5e-4,1.39799 a 0.55918088,0.55918088 0 1 1 -1.11824,-10e-6 l -1.9e-4,-1.39812 a 0.55918512,0.55918512 0 0 1 0.68366,-0.54498 z"
           id="path76" /></g><g
         id="g524"
         transform="translate(0,-14.280595)"><path
           style="opacity:0.108143;fill:#000000;stroke-width:0.264583"
           d="m -234.79212,-198.69306 a 0.55918088,0.55918088 0 0 0 -0.14471,-0.019 l -2.23702,-1.5e-4 a 0.55918088,0.55918088 0 0 0 -0.55912,0.55911 l 4e-4,3.3554 a 0.55918088,0.55918088 0 0 0 0.55911,0.55912 h 2.23647 a 0.55918088,0.55918088 0 0 0 0.55912,-0.55912 l 1.5e-4,-3.35525 a 0.55918088,0.55918088 0 0 0 -0.41439,-0.54013 z m -1.18373,0.54598 a 0.55918526,0.55918526 0 0 1 0.47986,0.55315 0.55918526,0.55918526 0 1 1 -1.11824,0 0.55918526,0.55918526 0 0 1 0.63838,-0.55315 z m -0.007,0.28309 a 0.27959256,0.27959256 0 0 0 -0.35226,0.27024 0.27959256,0.27959256 0 0 0 0.55912,1e-5 0.27959256,0.27959256 0 0 0 -0.20686,-0.27025 z m 0.14522,1.13328 a 0.97856655,0.97856655 0 0 1 -0.21769,1.93279 0.97863062,0.97863062 0 0 1 -1.9e-4,-1.95726 0.97856655,0.97856655 0 0 1 0.21789,0.0244 z m -0.12461,0.54514 a 0.41938898,0.41938898 0 0 0 -0.51275,0.40929 0.41951001,0.41951001 0 0 0 0.83902,-1.9e-4 0.41938898,0.41938898 0 0 0 -0.32627,-0.4091 z"
           id="path517" /><path
           style="opacity:0.108143;fill:#000000;stroke-width:0.264583"
           d="m -227.99778,-197.48037 a 1.6775427,1.6775427 0 0 1 0.0768,0.10598 1.3979522,1.3979522 0 0 0 -0.0768,-0.10598 z m 0.0768,0.10598 a 1.3979522,1.3979522 0 0 1 0.37245,0.89918 l -1.8e-4,0.27923 -0.27935,3.1e-4 a 0.27959044,0.27959044 0 0 0 -0.27957,0.27956 l -1.9e-4,0.83834 a 0.27959044,0.27959044 0 0 0 0.27956,0.27957 l 0.27976,3.1e-4 a 0.27959044,0.27959044 0 0 0 0.27956,-0.27957 l -1.9e-4,-1.39813 a 1.6775427,1.6775427 0 0 0 -0.65182,-0.89885 z"
           id="path518" /><path
           style="opacity:0.108143;fill:#000000;stroke-width:0.264583"
           d="m -228.42744,-198.07321 a 1.6775427,1.6775427 0 0 0 -2.19646,1.59762 l -3.4e-4,1.39799 a 0.27959044,0.27959044 0 0 0 0.27956,0.27956 l 0.27976,3.2e-4 a 0.27959044,0.27959044 0 0 0 0.27971,-0.28009 l -3.4e-4,-0.83848 a 0.27959044,0.27959044 0 0 0 -0.27956,-0.27956 l -0.27924,-1.8e-4 -3.1e-4,-0.27937 a 1.3979522,1.3979522 0 0 1 1.39796,-1.39832 1.3979522,1.3979522 0 0 1 0.94895,0.39335 1.6775427,1.6775427 0 0 0 -0.42966,-0.59284 z"
           id="path519" /><path
           style="opacity:0.108143;fill:#000000;stroke-width:0.264583"
           d="m -219.83142,-198.41328 a 0.27959044,0.27959044 0 0 0 -0.0771,-0.003 l -2.23707,0.22371 a 0.27959044,0.27959044 0 0 0 -0.25145,0.27804 l 1.1e-4,0.0266 -3.1e-4,2.34946 c -0.11691,-0.0705 -0.26171,-0.11288 -0.4192,-0.11288 -0.38585,3e-5 -0.69943,0.25044 -0.6994,0.5594 4e-5,0.30896 0.31342,0.55936 0.69926,0.55936 0.38583,-4e-5 0.69891,-0.2506 0.69887,-0.55955 l -1.2e-4,-2.54405 2.23707,-0.22372 -1.1e-4,1.76214 c -0.11694,-0.0704 -0.26182,-0.1124 -0.41934,-0.11237 -0.38584,4e-5 -0.69929,0.24993 -0.69927,0.55888 4e-5,0.30896 0.31342,0.55935 0.69927,0.55936 0.38584,-4e-5 0.69876,-0.25007 0.69873,-0.55903 l 3.4e-4,-2.51623 -0.004,-6e-5 a 0.27959044,0.27959044 0 0 0 -0.22582,-0.24594 z"
           id="path520" /><path
           style="opacity:0.108143;fill:#000000;stroke-width:0.264583"
           d="m -213.75057,-198.7129 -1.53775,8e-5 a 0.55918088,0.55918088 0 0 0 -0.55912,0.55912 l -1.5e-4,3.35525 a 0.55918088,0.55918088 0 0 0 0.55912,0.55912 l 2.23701,1.5e-4 a 0.55918088,0.55918088 0 0 0 0.55912,-0.55912 l -9e-5,-2.65599 z m 1.9e-4,0.27989 v 0.55912 a 0.41938566,0.41938566 0 0 0 0.41907,0.41927 l 0.55912,1e-5 1.1e-4,2.65598 a 0.27959044,0.27959044 0 0 1 -0.27957,0.27956 l -2.23662,5.2e-4 a 0.27959044,0.27959044 0 0 1 -0.27956,-0.27956 l 1.4e-4,-3.35524 a 0.27959044,0.27959044 0 0 1 0.27957,-0.27956 z m 0.21484,1.30781 a 0.27959044,0.27959044 0 0 0 -0.14315,-0.002 l -0.27987,0.0697 a 0.27959044,0.27959044 0 0 0 -0.21173,0.27117 l 2.8e-4,1.20368 a 0.72693514,0.72693514 0 0 0 -0.27992,-0.0546 c -0.13978,2e-5 -0.27194,0.0377 -0.37373,0.10564 -0.1007,0.0671 -0.18527,0.17548 -0.18534,0.31386 -2e-5,0.13839 0.0841,0.24649 0.18508,0.31359 0.10176,0.068 0.23478,0.10536 0.37427,0.10546 0.13951,1e-5 0.27233,-0.037 0.3741,-0.10497 0.10071,-0.0671 0.18475,-0.17561 0.18477,-0.314 l 3e-4,-1.00962 0.55922,-0.13961 -1.2e-4,-0.48905 a 0.27959044,0.27959044 0 0 0 -0.20424,-0.26955 z"
           id="path521" /><path
           style="opacity:0.108143;fill:#000000;stroke-width:0.264583"
           d="m -207.87554,-195.52059 a 1.3979522,1.3979522 0 0 1 -0.0575,-0.0641 1.1183618,1.1183618 0 0 0 0.0575,0.0641 z m -0.0575,-0.0641 a 1.1183618,1.1183618 0 0 1 -0.52612,-0.89118 l -1.7e-4,-0.27989 a 0.13979522,0.13979522 0 0 0 -0.13951,-0.13967 0.13979522,0.13979522 0 0 0 -0.13981,0.14006 l -3.2e-4,0.27976 a 1.3979522,1.3979522 0 0 0 0.80601,0.89098 z"
           id="path522" /><path
           style="opacity:0.108143;fill:#000000;stroke-width:0.264583"
           d="m -206.05126,-196.89175 a 0.13979642,0.13979642 0 0 0 -0.17105,0.13621 l -3.2e-4,0.27976 a 1.1183618,1.1183618 0 0 1 -1.65289,0.95519 1.3979522,1.3979522 0 0 0 0.39482,0.43595 l -1.2e-4,0.56587 -0.83848,3.4e-4 a 0.13979813,0.13979813 0 0 0 -1.8e-4,0.27923 l 1.9571,3.3e-4 a 0.13988022,0.13988022 0 0 0 3.2e-4,-0.27976 l -0.83902,2e-4 2.7e-4,-0.5664 a 1.3979522,1.3979522 0 0 0 1.25807,-1.39114 l -3.1e-4,-0.27936 a 0.13979642,0.13979642 0 0 0 -0.10818,-0.13641 z"
           id="path523" /><path
           style="opacity:0.108143;fill:#000000;stroke-width:0.264583"
           d="m -207.195,-198.6997 a 0.83877132,0.83877132 0 0 0 -0.14591,-0.0125 0.83877132,0.83877132 0 0 0 -0.83867,0.83868 l -2e-4,1.39747 a 0.838945,0.838945 0 0 0 1.67789,1.3e-4 l -3.3e-4,-1.3976 a 0.83877132,0.83877132 0 0 0 -0.69278,-0.82616 z m -0.0215,0.28082 a 0.55918512,0.55918512 0 0 1 0.43512,0.54512 l -3.5e-4,1.39799 a 0.55918088,0.55918088 0 1 1 -1.11824,-10e-6 l -1.9e-4,-1.39812 a 0.55918512,0.55918512 0 0 1 0.68366,-0.54498 z"
           id="path524" /></g><g
         id="g532"
         transform="translate(0,-21.078992)"><path
           style="opacity:0.108143;fill:#000000;stroke-width:0.264583"
           d="m -234.79212,-198.69306 a 0.55918088,0.55918088 0 0 0 -0.14471,-0.019 l -2.23702,-1.5e-4 a 0.55918088,0.55918088 0 0 0 -0.55912,0.55911 l 4e-4,3.3554 a 0.55918088,0.55918088 0 0 0 0.55911,0.55912 h 2.23647 a 0.55918088,0.55918088 0 0 0 0.55912,-0.55912 l 1.5e-4,-3.35525 a 0.55918088,0.55918088 0 0 0 -0.41439,-0.54013 z m -1.18373,0.54598 a 0.55918526,0.55918526 0 0 1 0.47986,0.55315 0.55918526,0.55918526 0 1 1 -1.11824,0 0.55918526,0.55918526 0 0 1 0.63838,-0.55315 z m -0.007,0.28309 a 0.27959256,0.27959256 0 0 0 -0.35226,0.27024 0.27959256,0.27959256 0 0 0 0.55912,1e-5 0.27959256,0.27959256 0 0 0 -0.20686,-0.27025 z m 0.14522,1.13328 a 0.97856655,0.97856655 0 0 1 -0.21769,1.93279 0.97863062,0.97863062 0 0 1 -1.9e-4,-1.95726 0.97856655,0.97856655 0 0 1 0.21789,0.0244 z m -0.12461,0.54514 a 0.41938898,0.41938898 0 0 0 -0.51275,0.40929 0.41951001,0.41951001 0 0 0 0.83902,-1.9e-4 0.41938898,0.41938898 0 0 0 -0.32627,-0.4091 z"
           id="path525" /><path
           style="opacity:0.108143;fill:#000000;stroke-width:0.264583"
           d="m -227.99778,-197.48037 a 1.6775427,1.6775427 0 0 1 0.0768,0.10598 1.3979522,1.3979522 0 0 0 -0.0768,-0.10598 z m 0.0768,0.10598 a 1.3979522,1.3979522 0 0 1 0.37245,0.89918 l -1.8e-4,0.27923 -0.27935,3.1e-4 a 0.27959044,0.27959044 0 0 0 -0.27957,0.27956 l -1.9e-4,0.83834 a 0.27959044,0.27959044 0 0 0 0.27956,0.27957 l 0.27976,3.1e-4 a 0.27959044,0.27959044 0 0 0 0.27956,-0.27957 l -1.9e-4,-1.39813 a 1.6775427,1.6775427 0 0 0 -0.65182,-0.89885 z"
           id="path526" /><path
           style="opacity:0.108143;fill:#000000;stroke-width:0.264583"
           d="m -228.42744,-198.07321 a 1.6775427,1.6775427 0 0 0 -2.19646,1.59762 l -3.4e-4,1.39799 a 0.27959044,0.27959044 0 0 0 0.27956,0.27956 l 0.27976,3.2e-4 a 0.27959044,0.27959044 0 0 0 0.27971,-0.28009 l -3.4e-4,-0.83848 a 0.27959044,0.27959044 0 0 0 -0.27956,-0.27956 l -0.27924,-1.8e-4 -3.1e-4,-0.27937 a 1.3979522,1.3979522 0 0 1 1.39796,-1.39832 1.3979522,1.3979522 0 0 1 0.94895,0.39335 1.6775427,1.6775427 0 0 0 -0.42966,-0.59284 z"
           id="path527" /><path
           style="opacity:0.108143;fill:#000000;stroke-width:0.264583"
           d="m -219.83142,-198.41328 a 0.27959044,0.27959044 0 0 0 -0.0771,-0.003 l -2.23707,0.22371 a 0.27959044,0.27959044 0 0 0 -0.25145,0.27804 l 1.1e-4,0.0266 -3.1e-4,2.34946 c -0.11691,-0.0705 -0.26171,-0.11288 -0.4192,-0.11288 -0.38585,3e-5 -0.69943,0.25044 -0.6994,0.5594 4e-5,0.30896 0.31342,0.55936 0.69926,0.55936 0.38583,-4e-5 0.69891,-0.2506 0.69887,-0.55955 l -1.2e-4,-2.54405 2.23707,-0.22372 -1.1e-4,1.76214 c -0.11694,-0.0704 -0.26182,-0.1124 -0.41934,-0.11237 -0.38584,4e-5 -0.69929,0.24993 -0.69927,0.55888 4e-5,0.30896 0.31342,0.55935 0.69927,0.55936 0.38584,-4e-5 0.69876,-0.25007 0.69873,-0.55903 l 3.4e-4,-2.51623 -0.004,-6e-5 a 0.27959044,0.27959044 0 0 0 -0.22582,-0.24594 z"
           id="path528" /><path
           style="opacity:0.108143;fill:#000000;stroke-width:0.264583"
           d="m -213.75057,-198.7129 -1.53775,8e-5 a 0.55918088,0.55918088 0 0 0 -0.55912,0.55912 l -1.5e-4,3.35525 a 0.55918088,0.55918088 0 0 0 0.55912,0.55912 l 2.23701,1.5e-4 a 0.55918088,0.55918088 0 0 0 0.55912,-0.55912 l -9e-5,-2.65599 z m 1.9e-4,0.27989 v 0.55912 a 0.41938566,0.41938566 0 0 0 0.41907,0.41927 l 0.55912,1e-5 1.1e-4,2.65598 a 0.27959044,0.27959044 0 0 1 -0.27957,0.27956 l -2.23662,5.2e-4 a 0.27959044,0.27959044 0 0 1 -0.27956,-0.27956 l 1.4e-4,-3.35524 a 0.27959044,0.27959044 0 0 1 0.27957,-0.27956 z m 0.21484,1.30781 a 0.27959044,0.27959044 0 0 0 -0.14315,-0.002 l -0.27987,0.0697 a 0.27959044,0.27959044 0 0 0 -0.21173,0.27117 l 2.8e-4,1.20368 a 0.72693514,0.72693514 0 0 0 -0.27992,-0.0546 c -0.13978,2e-5 -0.27194,0.0377 -0.37373,0.10564 -0.1007,0.0671 -0.18527,0.17548 -0.18534,0.31386 -2e-5,0.13839 0.0841,0.24649 0.18508,0.31359 0.10176,0.068 0.23478,0.10536 0.37427,0.10546 0.13951,1e-5 0.27233,-0.037 0.3741,-0.10497 0.10071,-0.0671 0.18475,-0.17561 0.18477,-0.314 l 3e-4,-1.00962 0.55922,-0.13961 -1.2e-4,-0.48905 a 0.27959044,0.27959044 0 0 0 -0.20424,-0.26955 z"
           id="path529" /><path
           style="opacity:0.108143;fill:#000000;stroke-width:0.264583"
           d="m -207.87554,-195.52059 a 1.3979522,1.3979522 0 0 1 -0.0575,-0.0641 1.1183618,1.1183618 0 0 0 0.0575,0.0641 z m -0.0575,-0.0641 a 1.1183618,1.1183618 0 0 1 -0.52612,-0.89118 l -1.7e-4,-0.27989 a 0.13979522,0.13979522 0 0 0 -0.13951,-0.13967 0.13979522,0.13979522 0 0 0 -0.13981,0.14006 l -3.2e-4,0.27976 a 1.3979522,1.3979522 0 0 0 0.80601,0.89098 z"
           id="path530" /><path
           style="opacity:0.108143;fill:#000000;stroke-width:0.264583"
           d="m -206.05126,-196.89175 a 0.13979642,0.13979642 0 0 0 -0.17105,0.13621 l -3.2e-4,0.27976 a 1.1183618,1.1183618 0 0 1 -1.65289,0.95519 1.3979522,1.3979522 0 0 0 0.39482,0.43595 l -1.2e-4,0.56587 -0.83848,3.4e-4 a 0.13979813,0.13979813 0 0 0 -1.8e-4,0.27923 l 1.9571,3.3e-4 a 0.13988022,0.13988022 0 0 0 3.2e-4,-0.27976 l -0.83902,2e-4 2.7e-4,-0.5664 a 1.3979522,1.3979522 0 0 0 1.25807,-1.39114 l -3.1e-4,-0.27936 a 0.13979642,0.13979642 0 0 0 -0.10818,-0.13641 z"
           id="path531" /><path
           style="opacity:0.108143;fill:#000000;stroke-width:0.264583"
           d="m -207.195,-198.6997 a 0.83877132,0.83877132 0 0 0 -0.14591,-0.0125 0.83877132,0.83877132 0 0 0 -0.83867,0.83868 l -2e-4,1.39747 a 0.838945,0.838945 0 0 0 1.67789,1.3e-4 l -3.3e-4,-1.3976 a 0.83877132,0.83877132 0 0 0 -0.69278,-0.82616 z m -0.0215,0.28082 a 0.55918512,0.55918512 0 0 1 0.43512,0.54512 l -3.5e-4,1.39799 a 0.55918088,0.55918088 0 1 1 -1.11824,-10e-6 l -1.9e-4,-1.39812 a 0.55918512,0.55918512 0 0 1 0.68366,-0.54498 z"
           id="path532" /></g><g
         id="g559"
         transform="translate(0,-27.877389)"><path
           style="opacity:0.108143;fill:#000000;stroke-width:0.264583"
           d="m -234.79212,-198.69306 a 0.55918088,0.55918088 0 0 0 -0.14471,-0.019 l -2.23702,-1.5e-4 a 0.55918088,0.55918088 0 0 0 -0.55912,0.55911 l 4e-4,3.3554 a 0.55918088,0.55918088 0 0 0 0.55911,0.55912 h 2.23647 a 0.55918088,0.55918088 0 0 0 0.55912,-0.55912 l 1.5e-4,-3.35525 a 0.55918088,0.55918088 0 0 0 -0.41439,-0.54013 z m -1.18373,0.54598 a 0.55918526,0.55918526 0 0 1 0.47986,0.55315 0.55918526,0.55918526 0 1 1 -1.11824,0 0.55918526,0.55918526 0 0 1 0.63838,-0.55315 z m -0.007,0.28309 a 0.27959256,0.27959256 0 0 0 -0.35226,0.27024 0.27959256,0.27959256 0 0 0 0.55912,1e-5 0.27959256,0.27959256 0 0 0 -0.20686,-0.27025 z m 0.14522,1.13328 a 0.97856655,0.97856655 0 0 1 -0.21769,1.93279 0.97863062,0.97863062 0 0 1 -1.9e-4,-1.95726 0.97856655,0.97856655 0 0 1 0.21789,0.0244 z m -0.12461,0.54514 a 0.41938898,0.41938898 0 0 0 -0.51275,0.40929 0.41951001,0.41951001 0 0 0 0.83902,-1.9e-4 0.41938898,0.41938898 0 0 0 -0.32627,-0.4091 z"
           id="path552" /><path
           style="opacity:0.108143;fill:#000000;stroke-width:0.264583"
           d="m -227.99778,-197.48037 a 1.6775427,1.6775427 0 0 1 0.0768,0.10598 1.3979522,1.3979522 0 0 0 -0.0768,-0.10598 z m 0.0768,0.10598 a 1.3979522,1.3979522 0 0 1 0.37245,0.89918 l -1.8e-4,0.27923 -0.27935,3.1e-4 a 0.27959044,0.27959044 0 0 0 -0.27957,0.27956 l -1.9e-4,0.83834 a 0.27959044,0.27959044 0 0 0 0.27956,0.27957 l 0.27976,3.1e-4 a 0.27959044,0.27959044 0 0 0 0.27956,-0.27957 l -1.9e-4,-1.39813 a 1.6775427,1.6775427 0 0 0 -0.65182,-0.89885 z"
           id="path553" /><path
           style="opacity:0.108143;fill:#000000;stroke-width:0.264583"
           d="m -228.42744,-198.07321 a 1.6775427,1.6775427 0 0 0 -2.19646,1.59762 l -3.4e-4,1.39799 a 0.27959044,0.27959044 0 0 0 0.27956,0.27956 l 0.27976,3.2e-4 a 0.27959044,0.27959044 0 0 0 0.27971,-0.28009 l -3.4e-4,-0.83848 a 0.27959044,0.27959044 0 0 0 -0.27956,-0.27956 l -0.27924,-1.8e-4 -3.1e-4,-0.27937 a 1.3979522,1.3979522 0 0 1 1.39796,-1.39832 1.3979522,1.3979522 0 0 1 0.94895,0.39335 1.6775427,1.6775427 0 0 0 -0.42966,-0.59284 z"
           id="path554" /><path
           style="opacity:0.108143;fill:#000000;stroke-width:0.264583"
           d="m -219.83142,-198.41328 a 0.27959044,0.27959044 0 0 0 -0.0771,-0.003 l -2.23707,0.22371 a 0.27959044,0.27959044 0 0 0 -0.25145,0.27804 l 1.1e-4,0.0266 -3.1e-4,2.34946 c -0.11691,-0.0705 -0.26171,-0.11288 -0.4192,-0.11288 -0.38585,3e-5 -0.69943,0.25044 -0.6994,0.5594 4e-5,0.30896 0.31342,0.55936 0.69926,0.55936 0.38583,-4e-5 0.69891,-0.2506 0.69887,-0.55955 l -1.2e-4,-2.54405 2.23707,-0.22372 -1.1e-4,1.76214 c -0.11694,-0.0704 -0.26182,-0.1124 -0.41934,-0.11237 -0.38584,4e-5 -0.69929,0.24993 -0.69927,0.55888 4e-5,0.30896 0.31342,0.55935 0.69927,0.55936 0.38584,-4e-5 0.69876,-0.25007 0.69873,-0.55903 l 3.4e-4,-2.51623 -0.004,-6e-5 a 0.27959044,0.27959044 0 0 0 -0.22582,-0.24594 z"
           id="path555" /><path
           style="opacity:0.108143;fill:#000000;stroke-width:0.264583"
           d="m -213.75057,-198.7129 -1.53775,8e-5 a 0.55918088,0.55918088 0 0 0 -0.55912,0.55912 l -1.5e-4,3.35525 a 0.55918088,0.55918088 0 0 0 0.55912,0.55912 l 2.23701,1.5e-4 a 0.55918088,0.55918088 0 0 0 0.55912,-0.55912 l -9e-5,-2.65599 z m 1.9e-4,0.27989 v 0.55912 a 0.41938566,0.41938566 0 0 0 0.41907,0.41927 l 0.55912,1e-5 1.1e-4,2.65598 a 0.27959044,0.27959044 0 0 1 -0.27957,0.27956 l -2.23662,5.2e-4 a 0.27959044,0.27959044 0 0 1 -0.27956,-0.27956 l 1.4e-4,-3.35524 a 0.27959044,0.27959044 0 0 1 0.27957,-0.27956 z m 0.21484,1.30781 a 0.27959044,0.27959044 0 0 0 -0.14315,-0.002 l -0.27987,0.0697 a 0.27959044,0.27959044 0 0 0 -0.21173,0.27117 l 2.8e-4,1.20368 a 0.72693514,0.72693514 0 0 0 -0.27992,-0.0546 c -0.13978,2e-5 -0.27194,0.0377 -0.37373,0.10564 -0.1007,0.0671 -0.18527,0.17548 -0.18534,0.31386 -2e-5,0.13839 0.0841,0.24649 0.18508,0.31359 0.10176,0.068 0.23478,0.10536 0.37427,0.10546 0.13951,1e-5 0.27233,-0.037 0.3741,-0.10497 0.10071,-0.0671 0.18475,-0.17561 0.18477,-0.314 l 3e-4,-1.00962 0.55922,-0.13961 -1.2e-4,-0.48905 a 0.27959044,0.27959044 0 0 0 -0.20424,-0.26955 z"
           id="path556" /><path
           style="opacity:0.108143;fill:#000000;stroke-width:0.264583"
           d="m -207.87554,-195.52059 a 1.3979522,1.3979522 0 0 1 -0.0575,-0.0641 1.1183618,1.1183618 0 0 0 0.0575,0.0641 z m -0.0575,-0.0641 a 1.1183618,1.1183618 0 0 1 -0.52612,-0.89118 l -1.7e-4,-0.27989 a 0.13979522,0.13979522 0 0 0 -0.13951,-0.13967 0.13979522,0.13979522 0 0 0 -0.13981,0.14006 l -3.2e-4,0.27976 a 1.3979522,1.3979522 0 0 0 0.80601,0.89098 z"
           id="path557" /><path
           style="opacity:0.108143;fill:#000000;stroke-width:0.264583"
           d="m -206.05126,-196.89175 a 0.13979642,0.13979642 0 0 0 -0.17105,0.13621 l -3.2e-4,0.27976 a 1.1183618,1.1183618 0 0 1 -1.65289,0.95519 1.3979522,1.3979522 0 0 0 0.39482,0.43595 l -1.2e-4,0.56587 -0.83848,3.4e-4 a 0.13979813,0.13979813 0 0 0 -1.8e-4,0.27923 l 1.9571,3.3e-4 a 0.13988022,0.13988022 0 0 0 3.2e-4,-0.27976 l -0.83902,2e-4 2.7e-4,-0.5664 a 1.3979522,1.3979522 0 0 0 1.25807,-1.39114 l -3.1e-4,-0.27936 a 0.13979642,0.13979642 0 0 0 -0.10818,-0.13641 z"
           id="path558" /><path
           style="opacity:0.108143;fill:#000000;stroke-width:0.264583"
           d="m -207.195,-198.6997 a 0.83877132,0.83877132 0 0 0 -0.14591,-0.0125 0.83877132,0.83877132 0 0 0 -0.83867,0.83868 l -2e-4,1.39747 a 0.838945,0.838945 0 0 0 1.67789,1.3e-4 l -3.3e-4,-1.3976 a 0.83877132,0.83877132 0 0 0 -0.69278,-0.82616 z m -0.0215,0.28082 a 0.55918512,0.55918512 0 0 1 0.43512,0.54512 l -3.5e-4,1.39799 a 0.55918088,0.55918088 0 1 1 -1.11824,-10e-6 l -1.9e-4,-1.39812 a 0.55918512,0.55918512 0 0 1 0.68366,-0.54498 z"
           id="path559" /></g><g
         id="g567"
         transform="translate(0,-34.675786)"><path
           style="opacity:0.108143;fill:#000000;stroke-width:0.264583"
           d="m -234.79212,-198.69306 a 0.55918088,0.55918088 0 0 0 -0.14471,-0.019 l -2.23702,-1.5e-4 a 0.55918088,0.55918088 0 0 0 -0.55912,0.55911 l 4e-4,3.3554 a 0.55918088,0.55918088 0 0 0 0.55911,0.55912 h 2.23647 a 0.55918088,0.55918088 0 0 0 0.55912,-0.55912 l 1.5e-4,-3.35525 a 0.55918088,0.55918088 0 0 0 -0.41439,-0.54013 z m -1.18373,0.54598 a 0.55918526,0.55918526 0 0 1 0.47986,0.55315 0.55918526,0.55918526 0 1 1 -1.11824,0 0.55918526,0.55918526 0 0 1 0.63838,-0.55315 z m -0.007,0.28309 a 0.27959256,0.27959256 0 0 0 -0.35226,0.27024 0.27959256,0.27959256 0 0 0 0.55912,1e-5 0.27959256,0.27959256 0 0 0 -0.20686,-0.27025 z m 0.14522,1.13328 a 0.97856655,0.97856655 0 0 1 -0.21769,1.93279 0.97863062,0.97863062 0 0 1 -1.9e-4,-1.95726 0.97856655,0.97856655 0 0 1 0.21789,0.0244 z m -0.12461,0.54514 a 0.41938898,0.41938898 0 0 0 -0.51275,0.40929 0.41951001,0.41951001 0 0 0 0.83902,-1.9e-4 0.41938898,0.41938898 0 0 0 -0.32627,-0.4091 z"
           id="path560" /><path
           style="opacity:0.108143;fill:#000000;stroke-width:0.264583"
           d="m -227.99778,-197.48037 a 1.6775427,1.6775427 0 0 1 0.0768,0.10598 1.3979522,1.3979522 0 0 0 -0.0768,-0.10598 z m 0.0768,0.10598 a 1.3979522,1.3979522 0 0 1 0.37245,0.89918 l -1.8e-4,0.27923 -0.27935,3.1e-4 a 0.27959044,0.27959044 0 0 0 -0.27957,0.27956 l -1.9e-4,0.83834 a 0.27959044,0.27959044 0 0 0 0.27956,0.27957 l 0.27976,3.1e-4 a 0.27959044,0.27959044 0 0 0 0.27956,-0.27957 l -1.9e-4,-1.39813 a 1.6775427,1.6775427 0 0 0 -0.65182,-0.89885 z"
           id="path561" /><path
           style="opacity:0.108143;fill:#000000;stroke-width:0.264583"
           d="m -228.42744,-198.07321 a 1.6775427,1.6775427 0 0 0 -2.19646,1.59762 l -3.4e-4,1.39799 a 0.27959044,0.27959044 0 0 0 0.27956,0.27956 l 0.27976,3.2e-4 a 0.27959044,0.27959044 0 0 0 0.27971,-0.28009 l -3.4e-4,-0.83848 a 0.27959044,0.27959044 0 0 0 -0.27956,-0.27956 l -0.27924,-1.8e-4 -3.1e-4,-0.27937 a 1.3979522,1.3979522 0 0 1 1.39796,-1.39832 1.3979522,1.3979522 0 0 1 0.94895,0.39335 1.6775427,1.6775427 0 0 0 -0.42966,-0.59284 z"
           id="path562" /><path
           style="opacity:0.108143;fill:#000000;stroke-width:0.264583"
           d="m -219.83142,-198.41328 a 0.27959044,0.27959044 0 0 0 -0.0771,-0.003 l -2.23707,0.22371 a 0.27959044,0.27959044 0 0 0 -0.25145,0.27804 l 1.1e-4,0.0266 -3.1e-4,2.34946 c -0.11691,-0.0705 -0.26171,-0.11288 -0.4192,-0.11288 -0.38585,3e-5 -0.69943,0.25044 -0.6994,0.5594 4e-5,0.30896 0.31342,0.55936 0.69926,0.55936 0.38583,-4e-5 0.69891,-0.2506 0.69887,-0.55955 l -1.2e-4,-2.54405 2.23707,-0.22372 -1.1e-4,1.76214 c -0.11694,-0.0704 -0.26182,-0.1124 -0.41934,-0.11237 -0.38584,4e-5 -0.69929,0.24993 -0.69927,0.55888 4e-5,0.30896 0.31342,0.55935 0.69927,0.55936 0.38584,-4e-5 0.69876,-0.25007 0.69873,-0.55903 l 3.4e-4,-2.51623 -0.004,-6e-5 a 0.27959044,0.27959044 0 0 0 -0.22582,-0.24594 z"
           id="path563" /><path
           style="opacity:0.108143;fill:#000000;stroke-width:0.264583"
           d="m -213.75057,-198.7129 -1.53775,8e-5 a 0.55918088,0.55918088 0 0 0 -0.55912,0.55912 l -1.5e-4,3.35525 a 0.55918088,0.55918088 0 0 0 0.55912,0.55912 l 2.23701,1.5e-4 a 0.55918088,0.55918088 0 0 0 0.55912,-0.55912 l -9e-5,-2.65599 z m 1.9e-4,0.27989 v 0.55912 a 0.41938566,0.41938566 0 0 0 0.41907,0.41927 l 0.55912,1e-5 1.1e-4,2.65598 a 0.27959044,0.27959044 0 0 1 -0.27957,0.27956 l -2.23662,5.2e-4 a 0.27959044,0.27959044 0 0 1 -0.27956,-0.27956 l 1.4e-4,-3.35524 a 0.27959044,0.27959044 0 0 1 0.27957,-0.27956 z m 0.21484,1.30781 a 0.27959044,0.27959044 0 0 0 -0.14315,-0.002 l -0.27987,0.0697 a 0.27959044,0.27959044 0 0 0 -0.21173,0.27117 l 2.8e-4,1.20368 a 0.72693514,0.72693514 0 0 0 -0.27992,-0.0546 c -0.13978,2e-5 -0.27194,0.0377 -0.37373,0.10564 -0.1007,0.0671 -0.18527,0.17548 -0.18534,0.31386 -2e-5,0.13839 0.0841,0.24649 0.18508,0.31359 0.10176,0.068 0.23478,0.10536 0.37427,0.10546 0.13951,1e-5 0.27233,-0.037 0.3741,-0.10497 0.10071,-0.0671 0.18475,-0.17561 0.18477,-0.314 l 3e-4,-1.00962 0.55922,-0.13961 -1.2e-4,-0.48905 a 0.27959044,0.27959044 0 0 0 -0.20424,-0.26955 z"
           id="path564" /><path
           style="opacity:0.108143;fill:#000000;stroke-width:0.264583"
           d="m -207.87554,-195.52059 a 1.3979522,1.3979522 0 0 1 -0.0575,-0.0641 1.1183618,1.1183618 0 0 0 0.0575,0.0641 z m -0.0575,-0.0641 a 1.1183618,1.1183618 0 0 1 -0.52612,-0.89118 l -1.7e-4,-0.27989 a 0.13979522,0.13979522 0 0 0 -0.13951,-0.13967 0.13979522,0.13979522 0 0 0 -0.13981,0.14006 l -3.2e-4,0.27976 a 1.3979522,1.3979522 0 0 0 0.80601,0.89098 z"
           id="path565" /><path
           style="opacity:0.108143;fill:#000000;stroke-width:0.264583"
           d="m -206.05126,-196.89175 a 0.13979642,0.13979642 0 0 0 -0.17105,0.13621 l -3.2e-4,0.27976 a 1.1183618,1.1183618 0 0 1 -1.65289,0.95519 1.3979522,1.3979522 0 0 0 0.39482,0.43595 l -1.2e-4,0.56587 -0.83848,3.4e-4 a 0.13979813,0.13979813 0 0 0 -1.8e-4,0.27923 l 1.9571,3.3e-4 a 0.13988022,0.13988022 0 0 0 3.2e-4,-0.27976 l -0.83902,2e-4 2.7e-4,-0.5664 a 1.3979522,1.3979522 0 0 0 1.25807,-1.39114 l -3.1e-4,-0.27936 a 0.13979642,0.13979642 0 0 0 -0.10818,-0.13641 z"
           id="path566" /><path
           style="opacity:0.108143;fill:#000000;stroke-width:0.264583"
           d="m -207.195,-198.6997 a 0.83877132,0.83877132 0 0 0 -0.14591,-0.0125 0.83877132,0.83877132 0 0 0 -0.83867,0.83868 l -2e-4,1.39747 a 0.838945,0.838945 0 0 0 1.67789,1.3e-4 l -3.3e-4,-1.3976 a 0.83877132,0.83877132 0 0 0 -0.69278,-0.82616 z m -0.0215,0.28082 a 0.55918512,0.55918512 0 0 1 0.43512,0.54512 l -3.5e-4,1.39799 a 0.55918088,0.55918088 0 1 1 -1.11824,-10e-6 l -1.9e-4,-1.39812 a 0.55918512,0.55918512 0 0 1 0.68366,-0.54498 z"
           id="path567" /></g></g><path
       id="path571"
       style="font-variation-settings:'wght' 900;opacity:0;fill:#ffffff;stroke-width:1.19803;stroke-linecap:square;stroke-linejoin:round;paint-order:markers stroke fill"
       d="m -246.54677,-200.64489 v -1.87682 h 0.0864 0.0864 v 1.87682 z"
       sodipodi:nodetypes="cccccc" /><path
       id="path572"
       style="font-variation-settings:'wght' 900;opacity:0;fill:#ffffff;stroke-width:1.19803;stroke-linecap:square;stroke-linejoin:round;paint-order:markers stroke fill"
       d="m -224.77835,-234.18958 v -1.87682 h 0.0864 0.0864 v 1.87682 z"
       sodipodi:nodetypes="cccccc" /><path
       id="path573"
       style="font-variation-settings:'wght' 900;opacity:0;fill:#ffffff;stroke-width:1.19803;stroke-linecap:square;stroke-linejoin:round;paint-order:markers stroke fill"
       d="m -216.26149,-204.75788 h 1.87682 v 0.0864 0.0864 h -1.87682 z"
       sodipodi:nodetypes="cccccc" /></g></svg>
